<svg width="22" height="20" viewBox="0 0 22 20" fill="none" xmlns="http://www.w3.org/2000/svg">
<path d="M11 2.5C11.6799 2.5 12.3445 2.68328 12.9098 3.02666C13.4751 3.37004 13.9157 3.85809 14.1758 4.42911C14.436 5.00013 14.5041 5.62846 14.3714 6.23465C14.2388 6.84084 13.9114 7.39767 13.4307 7.8347C12.9499 8.27174 12.3374 8.56937 11.6706 8.68995C11.0038 8.81053 10.3126 8.74864 9.68452 8.51212C9.0564 8.27559 8.51954 7.87506 8.14182 7.36115C7.76411 6.84725 7.5625 6.24306 7.5625 5.625C7.5625 4.7962 7.92466 4.00134 8.56932 3.41529C9.21398 2.82924 10.0883 2.5 11 2.5ZM11 1.25C10.0482 1.25 9.11773 1.50659 8.32632 1.98732C7.53491 2.46805 6.91808 3.15133 6.55383 3.95076C6.18959 4.75018 6.09428 5.62985 6.27997 6.47852C6.46566 7.32718 6.92401 8.10673 7.59705 8.71859C8.27009 9.33044 9.12759 9.74712 10.0611 9.91593C10.9947 10.0847 11.9623 9.9981 12.8417 9.66697C13.721 9.33583 14.4726 8.77508 15.0014 8.05561C15.5302 7.33615 15.8125 6.49029 15.8125 5.625C15.8125 4.46468 15.3055 3.35188 14.4029 2.53141C13.5004 1.71094 12.2764 1.25 11 1.25Z" fill="#FBB040"/>
<path d="M17.875 18.75H16.5V15.625C16.5 15.2146 16.4111 14.8083 16.2383 14.4291C16.0656 14.05 15.8124 13.7055 15.4932 13.4153C15.174 13.1251 14.795 12.8949 14.378 12.7379C13.9609 12.5808 13.5139 12.5 13.0625 12.5H8.9375C8.02582 12.5 7.15148 12.8292 6.50682 13.4153C5.86216 14.0013 5.5 14.7962 5.5 15.625V18.75H4.125V15.625C4.125 14.4647 4.63203 13.3519 5.53455 12.5314C6.43707 11.7109 7.66115 11.25 8.9375 11.25H13.0625C14.3389 11.25 15.5629 11.7109 16.4655 12.5314C17.368 13.3519 17.875 14.4647 17.875 15.625V18.75Z" fill="#FBB040"/>
</svg>
