<svg width="22" height="20" viewBox="0 0 22 20" fill="none" xmlns="http://www.w3.org/2000/svg">
<path d="M7.21971 20C8.16904 20 8.93864 19.2005 8.93864 18.2143C8.93864 17.2281 8.16904 16.4286 7.21971 16.4286C6.27038 16.4286 5.50084 17.2281 5.50084 18.2143C5.50084 19.2005 6.27038 20 7.21971 20Z" fill="#FBB040"/>
<path d="M16.1581 20C17.1074 20 17.877 19.2005 17.877 18.2143C17.877 17.2281 17.1074 16.4286 16.1581 16.4286C15.2087 16.4286 14.4391 17.2281 14.4391 18.2143C14.4391 19.2005 15.2087 20 16.1581 20Z" fill="#FBB040"/>
<path d="M18.152 13.5714H7.70101C6.87593 13.5714 6.18839 13 6.05088 12.2143L3.7129 2C3.64415 1.64286 3.36915 1.42857 3.02537 1.42857H0.68755C0.275009 1.42857 0 1.14286 0 0.714286C0 0.285714 0.275009 0 0.68755 0H3.02537C3.98797 0 4.81327 0.714286 5.01955 1.64286L7.35724 11.8571C7.426 12 7.5635 12.1429 7.70101 12.1429H18.152C18.2895 12.1429 18.427 12.0714 18.4958 11.8571L20.6273 4.71429C20.696 4.57143 20.6273 4.42857 20.5585 4.42857C20.4897 4.35714 20.421 4.28572 20.2834 4.28572H9.62621C9.21367 4.28572 8.93864 4 8.93864 3.57143C8.93864 3.14286 9.21367 2.85714 9.62621 2.85714H20.2834C20.8335 2.85714 21.3148 3.14286 21.6586 3.57143C22.0024 4 22.0711 4.64286 21.9336 5.14286L19.8021 12.2857C19.5959 13.0714 18.9083 13.5714 18.152 13.5714Z" fill="#FBB040"/>
</svg>
