<svg width="20" height="22" viewBox="0 0 20 22" fill="none" xmlns="http://www.w3.org/2000/svg">
<path d="M17.5265 7.52566C17.5265 3.36935 14.1572 0 10.0009 0C5.84458 0 2.47523 3.36935 2.47523 7.52566C1.40073 7.65945 0.384766 8.36184 0.384766 9.9924V13.9225C0.384766 15.7621 1.67249 16.431 2.89332 16.431H4.10578C4.33668 16.431 4.52388 16.2438 4.52388 16.0129V7.91866C4.52388 7.68777 4.33668 7.50057 4.10578 7.50057H3.31141C3.31141 3.8061 6.30641 0.811098 10.0009 0.811098C13.6954 0.811098 16.6904 3.8061 16.6904 7.50057H15.896C15.6651 7.50057 15.4779 7.68777 15.4779 7.91866V16.0004C15.4779 16.2313 15.6651 16.4185 15.896 16.4185H16.6904C16.5733 19.2908 15.1936 19.9639 12.4384 20.0851V19.805C12.4384 19.3432 12.064 18.9688 11.6022 18.9688H8.97237C8.51054 18.9688 8.13619 19.3432 8.13619 19.805V21.1638C8.13619 21.6257 8.51054 22 8.97237 22H11.6105C12.0724 22 12.4467 21.6257 12.4467 21.1638V20.9213C15.0974 20.8001 17.3886 20.2524 17.5265 16.3934C18.601 16.2596 19.617 15.5572 19.617 13.9266V9.99658C19.617 8.35766 18.6052 7.65945 17.5265 7.52566ZM3.68769 8.30749V15.5823H2.87241C2.25364 15.5823 1.20005 15.3649 1.20005 13.9099V9.97986C1.20005 8.53744 2.24109 8.30749 2.87241 8.30749H3.68769ZM11.6105 20.5325V21.168H8.97237V19.8092H11.6105V20.5325ZM18.7808 13.9225C18.7808 15.3649 17.7398 15.5948 17.1084 15.5948H16.3141V8.33675H17.1293C17.7481 8.33675 18.8017 8.55416 18.8017 10.0091L18.7808 13.9225Z" fill="#FBB040"/>
</svg>
